<?xml version="1.0" encoding="UTF-8" standalone="no"?>
<!DOCTYPE svg PUBLIC "-//W3C//DTD SVG 1.1//EN" "http://www.w3.org/Graphics/SVG/1.1/DTD/svg11.dtd">
<svg width="100%" height="100%" viewBox="0 0 1080 1080" version="1.1" xmlns="http://www.w3.org/2000/svg" xmlns:xlink="http://www.w3.org/1999/xlink" xml:space="preserve" xmlns:serif="http://www.serif.com/" style="fill-rule:evenodd;clip-rule:evenodd;stroke-linecap:round;stroke-linejoin:round;stroke-miterlimit:2;">
    <g id="Fire_o" transform="matrix(0.991073,1.03245,-1.03084,0.992621,439.228,-415.41)">
        <path d="M366,435.775L424,678L443.088,613.974L482,782.636L487.773,671.271" style="fill:none;stroke:black;stroke-width:1.4px;"/>
        <path d="M487.773,671.271L540,894" style="fill:none;stroke:black;stroke-width:1.4px;"/>
        <path d="M366,435.775L540,435.775" style="fill:none;stroke:black;stroke-width:1.4px;"/>
        <g transform="matrix(-1,0,0,1,1080,0)">
            <path d="M366,435.775L424,678L443.088,613.974L482,782.636L487.773,671.271" style="fill:none;stroke:black;stroke-width:1.4px;"/>
        </g>
        <g transform="matrix(-1,0,0,1,1080,0)">
            <path d="M487.773,671.271L540,894" style="fill:none;stroke:black;stroke-width:1.4px;"/>
        </g>
        <g transform="matrix(-1,0,0,1,1080,0)">
            <path d="M366,435.775L540,435.775" style="fill:none;stroke:black;stroke-width:1.4px;"/>
        </g>
        <path d="M366,435.775L714,435.775L656,678L636.912,613.974L598,782.636L592.227,671.271L540,894L487.773,671.271L482,782.636L443.088,613.974L424,678L366,435.775Z" style="fill:rgb(255,171,87);"/>
    </g>
    <g id="Fire_i" transform="matrix(0.657994,0.685463,-0.684394,0.659022,468.12,-82.6634)">
        <path d="M366,435.775L424,678L443.088,613.974L482,782.636L487.773,671.271" style="fill:none;stroke:black;stroke-width:2.1px;"/>
        <path d="M487.773,671.271L540,894" style="fill:none;stroke:black;stroke-width:2.1px;"/>
        <path d="M366,435.775L540,435.775" style="fill:none;stroke:black;stroke-width:2.1px;"/>
        <g transform="matrix(-1,0,0,1,1080,0)">
            <path d="M366,435.775L424,678L443.088,613.974L482,782.636L487.773,671.271" style="fill:none;stroke:black;stroke-width:2.11px;"/>
        </g>
        <g transform="matrix(-1,0,0,1,1080,0)">
            <path d="M487.773,671.271L540,894" style="fill:none;stroke:black;stroke-width:2.11px;"/>
        </g>
        <g transform="matrix(-1,0,0,1,1080,0)">
            <path d="M366,435.775L540,435.775" style="fill:none;stroke:black;stroke-width:2.11px;"/>
        </g>
        <path d="M366,435.775L714,435.775L656,678L636.912,613.974L598,782.636L592.227,671.271L540,894L487.773,671.271L482,782.636L443.088,613.974L424,678L366,435.775Z" style="fill:rgb(255,73,78);"/>
    </g>
    <g id="Right" transform="matrix(-1.01017,-1.01371,-1.01213,1.01175,1757.77,473.314)">
        <g transform="matrix(-0.706419,-0.707794,-0.707794,0.706419,1328.9,677.249)">
            <path d="M718.87,373.097C785.47,372.766 843.841,392.683 892.048,437.613L772.032,604.02C716.566,550.473 645.218,521.565 561.811,531.146L561.348,531.612L560.57,530.751L718.87,373.097Z" style="fill:white;stroke:black;stroke-width:2.8px;stroke-linecap:butt;"/>
        </g>
        <g transform="matrix(-0.706419,-0.707794,-0.707794,0.706419,1328.9,677.249)">
            <path d="M875.504,519.784C838.981,569.131 803.941,618.905 770.786,669.624C763.56,680.679 756.423,691.779 749.379,702.929C682.335,649.128 620.789,591.12 561.811,531.146C645.218,521.565 716.566,550.473 772.032,604.02L869.232,469.247C873.868,473.673 885.356,478.472 902.61,483.585C893.489,495.631 884.452,507.695 875.504,519.784Z" style="fill:white;stroke:black;stroke-width:2.8px;stroke-linecap:butt;"/>
        </g>
        <path d="M557,432L557.239,655.413L265,670L313,424L342.526,424.757" style="fill:none;stroke:black;stroke-width:2.8px;"/>
        <path d="M556.083,654.814C503.945,589.01 433.082,558.931 356,557.5L389,355" style="fill:none;stroke:black;stroke-width:2.8px;"/>
        <path d="M301.994,643.405C321.569,557.076 336.561,469.36 349,380C365.087,388.752 376.726,393.508 383.062,393.5" style="fill:none;stroke:black;stroke-width:2.8px;"/>
        <path d="M389,355C454.855,357.382 510.187,384.626 557,432" style="fill:none;stroke:black;stroke-width:2.8px;"/>
        <path d="M301.994,643.405C387.436,652.852 471.971,655.436 556.083,654.814" style="fill:none;stroke:black;stroke-width:2.8px;"/>
        <path d="M310.445,604.725C389.102,626.832 470.63,645.972 554.281,654.792" style="fill:none;stroke:black;stroke-width:2.8px;"/>
        <g transform="matrix(-0.999926,-0.0122021,-0.0122021,0.999926,1121.19,6.84685)">
            <path d="M557.163,654.814C641.261,656.463 725.822,654.91 811.372,646.507C808.613,633.61 805.956,620.684 803.394,607.727C791.654,548.352 777.255,450.336 774.54,428.591L803.045,426.984L848.039,673.551L557,675L557.163,654.814Z" style="fill:rgb(0,123,255);"/>
            <path d="M557.222,652.02C640.19,653.646 723.608,652.155 807.985,644.028C805.456,632.135 803.013,620.217 800.652,608.273C788.9,548.833 774.484,450.71 771.767,428.941C771.671,428.173 771.898,427.398 772.395,426.802C772.892,426.207 773.613,425.844 774.387,425.8L802.892,424.193C804.298,424.114 805.542,425.093 805.794,426.478L850.789,673.045C850.938,673.859 850.718,674.697 850.189,675.334C849.66,675.972 848.876,676.342 848.049,676.346L557.01,677.795C556.263,677.799 555.546,677.503 555.019,676.975C554.492,676.446 554.199,675.729 554.205,674.982L554.368,654.796C554.374,654.049 554.68,653.334 555.216,652.812C555.752,652.291 556.475,652.005 557.222,652.02ZM557.163,654.814L557,675L848.039,673.551L803.045,426.984L774.54,428.591C777.255,450.336 791.654,548.352 803.394,607.727C805.956,620.684 808.613,633.61 811.372,646.507C725.822,654.91 641.261,656.463 557.163,654.814Z"/>
        </g>
    </g>
    <g id="Left" transform="matrix(1.01109,1.01279,-1.01121,1.01267,630.773,-656.467)">
        <g transform="matrix(0.707062,-0.707152,0.707152,0.707062,-214.44,676.475)">
            <path d="M571.813,215.88C583.912,206.944 595.985,197.919 608.04,188.811C613.136,206.071 617.923,217.564 622.343,222.204L487.47,319.265C540.96,374.786 569.794,446.164 560.126,529.561C500.214,470.521 442.269,408.915 388.537,341.815C399.695,334.783 410.802,327.657 421.865,320.442C472.618,287.34 522.429,252.352 571.813,215.88Z" style="fill:white;stroke:black;stroke-width:2.8px;stroke-linecap:butt;"/>
        </g>
        <g transform="matrix(0.707062,-0.707152,0.707152,0.707062,-214.44,676.475)">
            <path d="M487.47,319.265L654.002,199.421C698.881,247.674 718.738,306.066 718.337,372.666L560.519,530.802L559.659,530.024L560.126,529.561C569.794,446.164 540.96,374.786 487.47,319.265Z" style="fill:white;stroke:black;stroke-width:2.8px;stroke-linecap:butt;"/>
        </g>
        <path d="M557,432L557.239,655.413L265,670L313,424L342.526,424.757" style="fill:none;stroke:black;stroke-width:2.79px;"/>
        <path d="M556.083,654.814C503.945,589.01 433.082,558.931 356,557.5L389,355" style="fill:none;stroke:black;stroke-width:2.79px;"/>
        <path d="M301.994,643.405C321.569,557.076 336.561,469.36 349,380C365.087,388.752 376.726,393.508 383.062,393.5" style="fill:none;stroke:black;stroke-width:2.79px;"/>
        <path d="M389,355C454.855,357.382 510.187,384.626 557,432" style="fill:none;stroke:black;stroke-width:2.79px;"/>
        <path d="M301.994,643.405C387.436,652.852 471.971,655.436 556.083,654.814" style="fill:none;stroke:black;stroke-width:2.79px;"/>
        <path d="M310.445,604.725C389.102,626.832 470.63,645.972 554.281,654.792" style="fill:none;stroke:black;stroke-width:2.79px;"/>
        <g transform="matrix(-0.999926,-0.0122021,-0.0122021,0.999926,1121.19,6.84685)">
            <path d="M557.163,654.814C641.261,656.463 725.822,654.91 811.372,646.507C808.613,633.61 805.956,620.684 803.394,607.727C791.654,548.352 777.255,450.336 774.54,428.591L803.045,426.984L848.039,673.551L557,675L557.163,654.814Z" style="fill:rgb(0,123,255);"/>
            <path d="M554.368,654.787L554.205,674.973C554.199,675.721 554.493,676.441 555.022,676.972C555.551,677.502 556.27,677.799 557.018,677.795L848.058,676.346C848.884,676.342 849.665,675.973 850.192,675.338C850.719,674.703 850.937,673.866 850.789,673.054L805.794,426.486C805.541,425.097 804.292,424.114 802.883,424.193L774.379,425.8C773.606,425.844 772.887,426.205 772.392,426.799C771.897,427.393 771.671,428.165 771.767,428.933C774.485,450.702 788.9,548.825 800.652,608.265C803.014,620.211 805.457,632.132 807.986,644.027C723.606,652.155 640.185,653.646 557.214,652.02C556.468,652.005 555.747,652.289 555.213,652.809C554.678,653.329 554.374,654.041 554.368,654.787ZM557.163,654.814C641.261,656.463 725.822,654.91 811.372,646.507C808.613,633.61 805.956,620.684 803.394,607.727C791.654,548.352 777.255,450.336 774.54,428.591L803.045,426.984L848.039,673.551L557,675L557.163,654.814Z"/>
        </g>
    </g>
</svg>
